<svg xmlns="http://www.w3.org/2000/svg" version="1.1" xmlns:xlink="http://www.w3.org/1999/xlink" xmlns:svgjs="http://svgjs.dev/svgjs" width="1500" height="1165" viewBox="0 0 1500 1165"><g transform="matrix(1,0,0,1,0.3788062589760557,0.47165991902829774)"><svg viewBox="0 0 318 247" data-background-color="#ffffff" preserveAspectRatio="xMidYMid meet" height="1165" width="1500" xmlns="http://www.w3.org/2000/svg" xmlns:xlink="http://www.w3.org/1999/xlink"><g id="tight-bounds" transform="matrix(1,0,0,1,-0.08030692690292085,-0.09999999999999432)"><svg viewBox="0 0 318.16061385380584 247.2" height="247.2" width="318.16061385380584"><g><svg viewBox="0 0 397.4975999999999 308.8421458890914" height="247.2" width="318.16061385380584"><g><rect width="397.4975999999999" height="9.459427020880842" x="0" y="169.72606652182455" fill="#471aa0" opacity="1" stroke-width="0" stroke="transparent" fill-opacity="1" class="rect-qz-0" data-fill-palette-color="secondary" rx="1%" id="qz-0" data-palette-color="#471aa0"></rect></g><g transform="matrix(1,0,0,1,0.9887999999999693,203.94839150312643)"><svg viewBox="0 0 395.52 104.89375438596491" height="104.89375438596491" width="395.52"><g id="textblocktransform"><svg viewBox="0 0 395.52 104.89375438596491" height="104.89375438596491" width="395.52" id="textblock"><g><svg viewBox="0 0 395.52 104.89375438596491" height="104.89375438596491" width="395.52"><g transform="matrix(1,0,0,1,0,0)"><svg width="395.52" viewBox="1.8 -36 170.98999999999998 45.349999999999994" height="104.89375438596491" data-palette-color="#471aa0"><path d="M9.8-14.8Q9.1-9.6 9.1-9.15L9.1-9.15Q9.1-7.1 10.15-5.8 11.2-4.5 13.15-4.5L13.15-4.5Q15.45-4.5 16.98-5.93 18.5-7.35 18.9-10.15L18.9-10.15 25.8-10.15Q25.3-6.6 23.45-4.2 21.6-1.8 18.93-0.65 16.25 0.5 13.25 0.5L13.25 0.5 12.45 0.5Q7.45 0.5 4.63-2.15 1.8-4.8 1.8-9.6L1.8-9.6Q1.8-13.9 3.38-17.65 4.95-21.4 8.18-23.73 11.4-26.05 16.2-26.05L16.2-26.05 17-26.05Q19.7-26.05 21.9-25 24.1-23.95 25.38-21.9 26.65-19.85 26.65-17.05L26.65-17.05Q26.65-15.95 26.55-15.35L26.55-15.35 19.3-15.35Q19.4-16.25 19.4-16.7L19.4-16.7Q19.4-18.75 18.45-19.9 17.5-21.05 15.55-21.05L15.55-21.05Q13.3-21.05 11.73-19.25 10.15-17.45 9.8-14.8L9.8-14.8ZM44.8-1.4Q39.25 9.35 32.2 9.35L32.2 9.35Q29.55 9.35 28.1 8.6L28.1 8.6 28.75 3.45Q29.3 3.7 30.22 3.93 31.15 4.15 32 4.15L32 4.15Q35.2 4.15 37.2-0.5L37.2-0.5 31.1-25.55 38.85-25.55 42.2-9.5 42.5-9.5 50.1-25.55 57.3-25.55 44.8-1.4ZM66.4-22.6Q67.7-24.05 69.67-25.05 71.65-26.05 74.05-26.05L74.05-26.05Q77.75-26.05 80.02-23.5 82.3-20.95 82.3-16.2L82.3-16.2Q82.3-12 80.92-8.18 79.55-4.35 76.67-1.93 73.8 0.5 69.55 0.5L69.55 0.5Q64 0.5 61.7-3.9L61.7-3.9 58.6 0 55.95 0 61-36 68.3-36 66.4-22.6ZM74.3-10.55Q75-15.55 75-16.1L75-16.1Q75-18.35 73.9-19.55 72.8-20.75 70.95-20.75L70.95-20.75Q68.8-20.75 67.27-19.2 65.75-17.65 65.3-14.7L65.3-14.7Q64.59-9.7 64.59-9.15L64.59-9.15Q64.59-6.9 65.7-5.7 66.8-4.5 68.65-4.5L68.65-4.5Q70.75-4.5 72.3-6.05 73.84-7.6 74.3-10.55L74.3-10.55ZM111.39-9.55Q110.94-6.2 109.02-3.93 107.09-1.65 104.32-0.58 101.54 0.5 98.44 0.5L98.44 0.5 97.64 0.5Q92.74 0.5 89.74-2.25 86.74-5 86.74-9.85L86.74-9.85Q86.74-14.55 88.52-18.23 90.29-21.9 93.62-23.98 96.94-26.05 101.39-26.05L101.39-26.05 102.19-26.05Q105.04-26.05 107.37-24.98 109.69-23.9 111.04-21.85 112.39-19.8 112.39-17L112.39-17Q112.39-16.45 112.29-15.35L112.29-15.35 111.74-11.55 94.24-11.55Q94.14-11.15 94.07-10.43 93.99-9.7 93.99-9.3L93.99-9.3Q93.99-7.15 95.24-5.83 96.49-4.5 98.74-4.5L98.74-4.5Q101.04-4.5 102.54-5.78 104.04-7.05 104.39-9.55L104.39-9.55 111.39-9.55ZM100.74-21.05Q98.54-21.05 96.94-19.5 95.34-17.95 94.79-15.55L94.79-15.55 104.89-15.55Q104.99-16.45 104.99-16.9L104.99-16.9Q104.99-21.05 100.74-21.05L100.74-21.05ZM132.09-15.65Q132.29-17.05 132.29-17.55L132.29-17.55Q132.29-18.85 131.57-19.73 130.84-20.6 129.24-20.6L129.24-20.6Q127.44-20.6 126.34-19.23 125.24-17.85 124.94-15.8L124.94-15.8 122.74 0 115.54 0 119.14-25.55 124.54-25.55 124.89-21.8Q125.19-22.35 126.17-23.35 127.14-24.35 128.82-25.2 130.49-26.05 132.64-26.05L132.64-26.05Q135.69-26.05 137.27-24.35 138.84-22.65 138.84-19.8L138.84-19.8Q138.84-19.1 138.59-17.57 138.34-16.05 138.19-15.65L138.19-15.65 132.09-15.65ZM136.14 0L150.24-18 142.04-34.3 151.09-34.3 156.09-23.8 156.29-23.8Q162.39-31.3 164.44-34.3L164.44-34.3 172.79-34.3Q171.54-32.75 167.91-28.13 164.29-23.5 159.94-18.1L159.94-18.1Q162.64-12.75 165.31-7.38 167.99-2 168.99 0L168.99 0 159.94 0 154.09-12.25 153.89-12.25Q145.74-1.9 144.44 0L144.44 0 136.14 0Z" opacity="1" transform="matrix(1,0,0,1,0,0)" fill="#471aa0" class="wordmark-text-0" data-fill-palette-color="primary" id="text-0"></path></svg></g></svg></g></svg></g></svg></g><g transform="matrix(1,0,0,1,112.56769655781939,0)"><svg viewBox="0 0 172.36220688436114 144.9631685614035" height="144.9631685614035" width="172.36220688436114"><g><svg xmlns="http://www.w3.org/2000/svg" xmlns:xlink="http://www.w3.org/1999/xlink" version="1.1" x="8" y="0" viewBox="0 3.749000000000013 100.03899185988207 92.746" enable-background="new 0 0 100 100" xml:space="preserve" width="156.36220688436114" height="144.9631685614035" class="icon-icon-0" data-fill-palette-color="accent" id="icon-0"><path d="M51.246 89.629c-5.208-0.948-8.671-5.945-7.731-11.141 0.644-3.527 3.149-6.303 6.389-7.389l3.046-5.668-4.454-4.653c-0.399-0.021-0.807-0.068-1.21-0.144-2.501-0.45-4.689-1.857-6.148-3.969-1.463-2.102-2.017-4.646-1.562-7.165 0.833-4.569 4.797-7.882 9.426-7.882 0.566 0 1.133 0.049 1.712 0.154 2.416 0.436 4.548 1.802 5.986 3.725l6.354 1.149 3.103-5.775c-0.356-1.343-0.425-2.765-0.176-4.149 0.832-4.569 4.792-7.882 9.422-7.882 0.562 0 1.133 0.052 1.712 0.152 0.167 0.032 0.326 0.101 0.493 0.14 0-5.454 0-8.985 0-8.985 0-9.057-17.372-16.398-38.804-16.398C17.373 3.75 0 11.092 0 20.149c0 0 0 14.155 0 29.614s16.252 37.379 38.804 46.732c4.441-1.84 8.628-4.188 12.512-6.86C51.294 89.631 51.272 89.633 51.246 89.629z" fill="#471aa0" data-fill-palette-color="accent"></path><path d="M99.22 56.969c-0.699-1.011-1.755-1.688-2.961-1.907-1.845-0.339-3.591 0.472-4.569 1.836l-12.1-2.192-1.686-12.43c1.051-0.665 1.811-1.742 2.042-3.024 0.219-1.212-0.047-2.438-0.751-3.448-0.699-1.01-1.751-1.688-2.961-1.905-2.553-0.457-4.903 1.246-5.354 3.709-0.223 1.251 0.091 2.506 0.812 3.49l-5.964 11.098-12.284-2.227c-0.459-1.644-1.823-2.971-3.617-3.295-2.527-0.455-4.899 1.249-5.346 3.711-0.455 2.502 1.214 4.902 3.707 5.351 0.768 0.142 1.515 0.075 2.222-0.163l8.641 9.031-5.908 10.988c-2.304-0.099-4.316 1.523-4.728 3.782-0.45 2.495 1.214 4.897 3.711 5.353 2.549 0.455 4.904-1.253 5.351-3.711 0.052-0.271 0.073-0.539 0.068-0.81l11.25-5.421 8.74 9.137c-0.211 0.403-0.36 0.843-0.446 1.305-0.219 1.212 0.043 2.435 0.751 3.447 0.694 1.008 1.75 1.687 2.96 1.905 0.279 0.051 0.554 0.077 0.824 0.077 2.23 0 4.136-1.592 4.53-3.784 0.219-1.21-0.047-2.433-0.751-3.445-0.536-0.772-1.278-1.352-2.141-1.678l-1.776-13.082 11.211-5.397c0.559 0.429 1.215 0.725 1.918 0.854 0.279 0.052 0.55 0.075 0.82 0.075 2.227 0 4.132-1.594 4.526-3.784C100.185 59.202 99.923 57.979 99.22 56.969z" fill="#471aa0" data-fill-palette-color="accent"></path></svg></g></svg></g><g><rect width="12.13052623864543" height="9.459427020880842" y="134.50374154052267" x="284.92990344218055" fill="#471aa0" data-fill-palette-color="secondary"></rect><rect width="12.13052623864543" height="9.459427020880842" y="134.50374154052267" x="100.43717031917396" fill="#471aa0" data-fill-palette-color="secondary"></rect></g></svg></g><defs></defs></svg><rect width="318.16061385380584" height="247.2" fill="none" stroke="none" visibility="hidden"></rect></g></svg></g></svg>